<?xml version="1.0" encoding="UTF-8" standalone="no"?>
<!DOCTYPE svg PUBLIC "-//W3C//DTD SVG 1.0//EN" "http://www.w3.org/TR/2001/PR-SVG-20010719/DTD/svg10.dtd">
<svg width="17cm" height="13cm" viewBox="318 98 323 243" xmlns="http://www.w3.org/2000/svg" xmlns:xlink="http://www.w3.org/1999/xlink">
  <g>
    <rect style="fill: #ffffff" x="400" y="100" width="80" height="80"/>
    <rect style="fill: none; fill-opacity:0; stroke-width: 2; stroke: #7f7f7f" x="400" y="100" width="80" height="80"/>
  </g>
  <g>
    <rect style="fill: #000000" x="422" y="117" width="56" height="56"/>
    <rect style="fill: none; fill-opacity:0; stroke-width: 2; stroke: #000000" x="422" y="117" width="56" height="56"/>
  </g>
  <g>
    <rect style="fill: #ffffff" x="480" y="100" width="80" height="80"/>
    <rect style="fill: none; fill-opacity:0; stroke-width: 2; stroke: #7f7f7f" x="480" y="100" width="80" height="80"/>
  </g>
  <g>
    <rect style="fill: #000000" x="490.5" y="110.5" width="64" height="64"/>
    <rect style="fill: none; fill-opacity:0; stroke-width: 2; stroke: #000000" x="490.5" y="110.5" width="64" height="64"/>
  </g>
  <g>
    <rect style="fill: #ffffff" x="560" y="100" width="80" height="80"/>
    <rect style="fill: none; fill-opacity:0; stroke-width: 2; stroke: #7f7f7f" x="560" y="100" width="80" height="80"/>
  </g>
  <g>
    <rect style="fill: #000000" x="567" y="117" width="56" height="56"/>
    <rect style="fill: none; fill-opacity:0; stroke-width: 2; stroke: #000000" x="567" y="117" width="56" height="56"/>
  </g>
  <g>
    <rect style="fill: #ffffff" x="400" y="180" width="80" height="80"/>
    <rect style="fill: none; fill-opacity:0; stroke-width: 2; stroke: #7f7f7f" x="400" y="180" width="80" height="80"/>
  </g>
  <g>
    <rect style="fill: #000000" x="413" y="184.5" width="64" height="64"/>
    <rect style="fill: none; fill-opacity:0; stroke-width: 2; stroke: #000000" x="413" y="184.5" width="64" height="64"/>
  </g>
  <g>
    <rect style="fill: #ffffff" x="480" y="180" width="80" height="80"/>
    <rect style="fill: none; fill-opacity:0; stroke-width: 2; stroke: #7f7f7f" x="480" y="180" width="80" height="80"/>
  </g>
  <g>
    <rect style="fill: #000000" x="482" y="182" width="78" height="78"/>
    <rect style="fill: none; fill-opacity:0; stroke-width: 2; stroke: #000000" x="482" y="182" width="78" height="78"/>
  </g>
  <g>
    <rect style="fill: #ffffff" x="560" y="180" width="80" height="80"/>
    <rect style="fill: none; fill-opacity:0; stroke-width: 2; stroke: #7f7f7f" x="560" y="180" width="80" height="80"/>
  </g>
  <g>
    <rect style="fill: #000000" x="564" y="184" width="72" height="72"/>
    <rect style="fill: none; fill-opacity:0; stroke-width: 2; stroke: #000000" x="564" y="184" width="72" height="72"/>
  </g>
  <g>
    <rect style="fill: #ffffff" x="320" y="100" width="80" height="80"/>
    <rect style="fill: none; fill-opacity:0; stroke-width: 2; stroke: #7f7f7f" x="320" y="100" width="80" height="80"/>
  </g>
  <g>
    <rect style="fill: #000000" x="361" y="123.5" width="48" height="48"/>
    <rect style="fill: none; fill-opacity:0; stroke-width: 2; stroke: #000000" x="361" y="123.5" width="48" height="48"/>
  </g>
  <g>
    <rect style="fill: #ffffff" x="320" y="180" width="80" height="80"/>
    <rect style="fill: none; fill-opacity:0; stroke-width: 2; stroke: #7f7f7f" x="320" y="180" width="80" height="80"/>
  </g>
  <g>
    <rect style="fill: #000000" x="356.25" y="189.25" width="48" height="48"/>
    <rect style="fill: none; fill-opacity:0; stroke-width: 2; stroke: #000000" x="356.25" y="189.25" width="48" height="48"/>
  </g>
  <g>
    <rect style="fill: #ffffff" x="320" y="260" width="80" height="80"/>
    <rect style="fill: none; fill-opacity:0; stroke-width: 2; stroke: #7f7f7f" x="320" y="260" width="80" height="80"/>
  </g>
  <g>
    <rect style="fill: #ffffff" x="400" y="260" width="80" height="80"/>
    <rect style="fill: none; fill-opacity:0; stroke-width: 2; stroke: #7f7f7f" x="400" y="260" width="80" height="80"/>
  </g>
  <g>
    <rect style="fill: #000000" x="435" y="265" width="40" height="40"/>
    <rect style="fill: none; fill-opacity:0; stroke-width: 2; stroke: #000000" x="435" y="265" width="40" height="40"/>
  </g>
  <g>
    <rect style="fill: #ffffff" x="480" y="260" width="80" height="80"/>
    <rect style="fill: none; fill-opacity:0; stroke-width: 2; stroke: #7f7f7f" x="480" y="260" width="80" height="80"/>
  </g>
  <g>
    <rect style="fill: #000000" x="501" y="266" width="48" height="48"/>
    <rect style="fill: none; fill-opacity:0; stroke-width: 2; stroke: #000000" x="501" y="266" width="48" height="48"/>
  </g>
  <g>
    <rect style="fill: #ffffff" x="560" y="260" width="80" height="80"/>
    <rect style="fill: none; fill-opacity:0; stroke-width: 2; stroke: #7f7f7f" x="560" y="260" width="80" height="80"/>
  </g>
  <g>
    <rect style="fill: #000000" x="569.5" y="263.75" width="48" height="48"/>
    <rect style="fill: none; fill-opacity:0; stroke-width: 2; stroke: #000000" x="569.5" y="263.75" width="48" height="48"/>
  </g>
  <g>
    <line style="fill: none; fill-opacity:0; stroke-width: 2; stroke: #00ff00" x1="484.141" y1="159.98" x2="451.532" y2="145.672"/>
    <polygon style="fill: #00ff00" points="491.009,162.994 479.842,163.554 484.141,159.98 483.86,154.397 "/>
    <polygon style="fill: none; fill-opacity:0; stroke-width: 2; stroke: #00ff00" points="491.009,162.994 479.842,163.554 484.141,159.98 483.86,154.397 "/>
  </g>
  <g>
    <line style="fill: none; fill-opacity:0; stroke-width: 2; stroke: #00ff00" x1="525.64" y1="148.102" x2="522.412" y2="142.343"/>
    <polygon style="fill: #00ff00" points="529.307,154.645 520.056,148.366 525.64,148.102 528.779,143.477 "/>
    <polygon style="fill: none; fill-opacity:0; stroke-width: 2; stroke: #00ff00" points="529.307,154.645 520.056,148.366 525.64,148.102 528.779,143.477 "/>
  </g>
  <g>
    <line style="fill: none; fill-opacity:0; stroke-width: 2; stroke: #00ff00" x1="587.485" y1="151.552" x2="595.747" y2="143.926"/>
    <polygon style="fill: #00ff00" points="581.974,156.639 585.931,146.182 587.485,151.552 592.714,153.53 "/>
    <polygon style="fill: none; fill-opacity:0; stroke-width: 2; stroke: #00ff00" points="581.974,156.639 585.931,146.182 587.485,151.552 592.714,153.53 "/>
  </g>
  <g>
    <line style="fill: none; fill-opacity:0; stroke-width: 2; stroke: #00ff00" x1="592.061" y1="215.115" x2="599.886" y2="219.93"/>
    <polygon style="fill: #00ff00" points="585.674,211.184 596.811,212.167 592.061,215.115 591.57,220.683 "/>
    <polygon style="fill: none; fill-opacity:0; stroke-width: 2; stroke: #00ff00" points="585.674,211.184 596.811,212.167 592.061,215.115 591.57,220.683 "/>
  </g>
  <g>
    <line style="fill: none; fill-opacity:0; stroke-width: 2; stroke: #00ff00" x1="521.834" y1="217.904" x2="520" y2="220"/>
    <polygon style="fill: #00ff00" points="526.772,212.26 523.95,223.078 521.834,217.904 516.424,216.493 "/>
    <polygon style="fill: none; fill-opacity:0; stroke-width: 2; stroke: #00ff00" points="526.772,212.26 523.95,223.078 521.834,217.904 516.424,216.493 "/>
  </g>
  <g>
    <line style="fill: none; fill-opacity:0; stroke-width: 2; stroke: #00ff00" x1="471.549" y1="210.652" x2="438.801" y2="220.355"/>
    <polygon style="fill: #00ff00" points="478.74,208.521 470.573,216.156 471.549,210.652 467.732,206.568 "/>
    <polygon style="fill: none; fill-opacity:0; stroke-width: 2; stroke: #00ff00" points="478.74,208.521 470.573,216.156 471.549,210.652 467.732,206.568 "/>
  </g>
  <g>
    <line style="fill: none; fill-opacity:0; stroke-width: 2; stroke: #00ff00" x1="459.264" y1="201.357" x2="381.51" y2="213.06"/>
    <polygon style="fill: #00ff00" points="466.68,200.24 457.536,206.673 459.264,201.357 456.047,196.785 "/>
    <polygon style="fill: none; fill-opacity:0; stroke-width: 2; stroke: #00ff00" points="466.68,200.24 457.536,206.673 459.264,201.357 456.047,196.785 "/>
  </g>
  <g>
    <line style="fill: none; fill-opacity:0; stroke-width: 2; stroke: #00ff00" x1="485.711" y1="252.596" x2="454.509" y2="284.953"/>
    <polygon style="fill: #00ff00" points="490.917,247.197 487.575,257.866 485.711,252.596 480.376,250.925 "/>
    <polygon style="fill: none; fill-opacity:0; stroke-width: 2; stroke: #00ff00" points="490.917,247.197 487.575,257.866 485.711,252.596 480.376,250.925 "/>
  </g>
  <g>
    <line style="fill: none; fill-opacity:0; stroke-width: 2; stroke: #00ff00" x1="529.146" y1="263.415" x2="521.994" y2="292.024"/>
    <polygon style="fill: #00ff00" points="530.965,256.139 533.391,267.053 529.146,263.415 523.689,264.628 "/>
    <polygon style="fill: none; fill-opacity:0; stroke-width: 2; stroke: #00ff00" points="530.965,256.139 533.391,267.053 529.146,263.415 523.689,264.628 "/>
  </g>
  <g>
    <line style="fill: none; fill-opacity:0; stroke-width: 2; stroke: #00ff00" x1="582.42" y1="262.135" x2="596.142" y2="291.691"/>
    <polygon style="fill: #00ff00" points="579.262,255.333 588.008,262.297 582.42,262.135 578.938,266.508 "/>
    <polygon style="fill: none; fill-opacity:0; stroke-width: 2; stroke: #00ff00" points="579.262,255.333 588.008,262.297 582.42,262.135 578.938,266.508 "/>
  </g>
  <g>
    <line style="fill: none; fill-opacity:0; stroke-width: 6; stroke: #ff0000" x1="560" y1="220" x2="553.571" y2="203.927"/>
    <polygon style="fill: #ff0000" points="558.213,202.07 549.114,192.785 548.928,205.784 "/>
    <polygon style="fill: none; fill-opacity:0; stroke-width: 6; stroke: #ff0000" points="558.213,202.07 549.114,192.785 548.928,205.784 "/>
  </g>
  <g>
    <line style="fill: none; fill-opacity:0; stroke-width: 2; stroke: #00ff00" x1="460.912" y1="166.362" x2="386.709" y2="147.925"/>
    <polygon style="fill: #00ff00" points="468.191,168.17 457.28,170.611 460.912,166.362 459.691,160.906 "/>
    <polygon style="fill: none; fill-opacity:0; stroke-width: 2; stroke: #00ff00" points="468.191,168.17 457.28,170.611 460.912,166.362 459.691,160.906 "/>
  </g>
  <g>
    <rect style="fill: #000000" x="380" y="255" width="40" height="40"/>
    <rect style="fill: none; fill-opacity:0; stroke-width: 2; stroke: #000000" x="380" y="255" width="40" height="40"/>
  </g>
  <g>
    <line style="fill: none; fill-opacity:0; stroke-width: 2; stroke: #00ff00" x1="470.64" y1="233.475" x2="400.312" y2="274.816"/>
    <polygon style="fill: #00ff00" points="477.106,229.674 471.019,239.052 470.64,233.475 465.951,230.432 "/>
    <polygon style="fill: none; fill-opacity:0; stroke-width: 2; stroke: #00ff00" points="477.106,229.674 471.019,239.052 470.64,233.475 465.951,230.432 "/>
  </g>
</svg>
