<?xml version="1.0" encoding="UTF-8" standalone="no"?>
<svg
   xmlns:dc="http://purl.org/dc/elements/1.1/"
   xmlns:cc="http://creativecommons.org/ns#"
   xmlns:rdf="http://www.w3.org/1999/02/22-rdf-syntax-ns#"
   xmlns:svg="http://www.w3.org/2000/svg"
   xmlns="http://www.w3.org/2000/svg"
   xmlns:xlink="http://www.w3.org/1999/xlink"
   xmlns:sodipodi="http://sodipodi.sourceforge.net/DTD/sodipodi-0.dtd"
   xmlns:inkscape="http://www.inkscape.org/namespaces/inkscape"
   width="1000"
   height="500"
   viewBox="248 43 548.92209 274.52524"
   id="svg2"
   version="1.1"
   inkscape:version="0.48.4 r9939"
   sodipodi:docname="js_3.svg">
  <metadata
     id="metadata88">
    <rdf:RDF>
      <cc:Work
         rdf:about="">
        <dc:format>image/svg+xml</dc:format>
        <dc:type
           rdf:resource="http://purl.org/dc/dcmitype/StillImage" />
        <dc:title></dc:title>
      </cc:Work>
    </rdf:RDF>
  </metadata>
  <defs
     id="defs86">
    <pattern
       inkscape:collect="always"
       xlink:href="#pattern3184"
       id="pattern3275"
       patternTransform="matrix(-4.3034176,0,0,2.1996426,597.0022,170.28419)" />
    <pattern
       inkscape:collect="always"
       xlink:href="#pattern3071"
       id="pattern3184"
       patternTransform="matrix(-4.3034176,0,0,2.1996426,792.30109,172.47004)" />
    <pattern
       inkscape:collect="always"
       xlink:href="#pattern5804-6"
       id="pattern3071"
       patternTransform="matrix(-4.3034176,0,0,2.1996426,795.95453,171.55668)" />
    <pattern
       inkscape:collect="always"
       xlink:href="#pattern5820"
       id="pattern5852"
       patternTransform="matrix(-4.3034178,0,0,2.1515112,799.49547,61.542801)" />
    <pattern
       patternTransform="matrix(10.158892,0,0,9.7439806,-31.611697,-302.83349)"
       id="pattern5820"
       xlink:href="#pattern5804-2"
       inkscape:collect="always" />
    <pattern
       inkscape:collect="always"
       xlink:href="#Strips1_1-5"
       id="pattern5804-2"
       patternTransform="matrix(4.3034176,0,0,2.1515111,368.50399,61.910114)" />
    <pattern
       inkscape:stockid="Stripes 1:1"
       id="Strips1_1-5"
       patternTransform="translate(0,0) scale(10,10)"
       height="1"
       width="2"
       patternUnits="userSpaceOnUse"
       inkscape:collect="always">
      <rect
         id="rect5081-2"
         height="2"
         width="1"
         y="-0.5"
         x="0"
         style="fill:black;stroke:none" />
    </pattern>
    <pattern
       inkscape:collect="always"
       xlink:href="#Strips1_1-6"
       id="pattern5804-6"
       patternTransform="matrix(4.3034176,0,0,2.1515111,404.44857,127.48559)" />
    <pattern
       inkscape:stockid="Stripes 1:1"
       id="Strips1_1-6"
       patternTransform="translate(0,0) scale(10,10)"
       height="1"
       width="2"
       patternUnits="userSpaceOnUse"
       inkscape:collect="always">
      <rect
         id="rect5081-7"
         height="2"
         width="1"
         y="-0.5"
         x="0"
         style="fill:black;stroke:none" />
    </pattern>
  </defs>
  <sodipodi:namedview
     pagecolor="#ffffff"
     bordercolor="#666666"
     borderopacity="1"
     objecttolerance="10"
     gridtolerance="10"
     guidetolerance="10"
     inkscape:pageopacity="0"
     inkscape:pageshadow="2"
     inkscape:window-width="1362"
     inkscape:window-height="749"
     id="namedview84"
     showgrid="false"
     inkscape:zoom="0.70710678"
     inkscape:cx="503.92617"
     inkscape:cy="311.10387"
     inkscape:window-x="0"
     inkscape:window-y="15"
     inkscape:window-maximized="0"
     inkscape:current-layer="g3287" />
  <g
     id="g4021"
     transform="matrix(1.2961197,0,0,2.4865952,-227.97138,-381.54058)">
    <path
       sodipodi:nodetypes="cc"
       inkscape:connector-curvature="0"
       id="path3197-1"
       d="m 380.44936,176.16156 c 69.03587,0.60396 0.30445,91.03145 201.85232,91.33591 l 184.46065,-0.41561 0,0"
       style="fill:none;stroke:#000000;stroke-width:0.82357574;stroke-linecap:butt;stroke-linejoin:miter;stroke-miterlimit:4;stroke-opacity:1;stroke-dasharray:none" />
    <path
       style="fill:#00ff00;fill-opacity:1;stroke:none"
       d="m 379.70769,207.63321 0.0533,-31.26724 0.78287,-0.0965 c 0.56203,-0.0693 1.1147,-0.0462 1.9592,0.0817 l 1.17633,0.17825 0,31.1855 0,31.1855 -2.01252,0 -2.01252,0 0.0533,-31.26725 0,0 z"
       id="path6043"
       inkscape:connector-curvature="0" />
    <path
       style="fill:#00ff00;fill-opacity:1;stroke:none"
       d="m 388.07512,208.04308 c -0.0476,-27.36885 -0.0178,-30.857 0.26401,-30.85404 0.17474,0.002 1.08021,0.11536 2.01216,0.25228 l 1.69444,0.24895 0.0533,30.60509 0.0533,30.6051 -2.01179,0 -2.01178,0 -0.0537,-30.85738 z"
       id="path6045"
       inkscape:connector-curvature="0" />
    <path
       style="fill:#00ff00;fill-opacity:1;stroke:none"
       d="m 396.59955,208.9815 c 0,-16.45543 0.0715,-29.91677 0.15885,-29.91408 0.0874,0.003 0.96901,0.24032 1.9592,0.52808 l 1.80035,0.52321 0.0533,29.39087 0.0533,29.39088 -2.01255,0 -2.01254,0 0,-29.91896 z"
       id="path6047"
       inkscape:connector-curvature="0" />
    <path
       style="fill:#00ff00;fill-opacity:1;stroke:none"
       d="m 405.01965,211.05828 0.0538,-27.73179 0.53907,0.37967 c 1.2289,0.86555 1.86655,1.47973 2.65325,2.55562 l 0.83033,1.13554 0,25.69637 0,25.69637 -2.0651,0 -2.06511,0 0.0538,-27.73178 0,0 z"
       id="path6049"
       inkscape:connector-curvature="0" />
    <path
       style="fill:#00ff00;fill-opacity:1;stroke:none"
       d="m 413.54399,216.19443 c 0,-12.42759 0.0432,-22.57309 0.096,-22.54556 0.1702,0.0887 2.80366,3.76545 3.37506,4.71213 l 0.5532,0.91651 0,19.75627 0,19.75628 -2.01215,0 -2.01215,0 0,-22.59563 z"
       id="path6051"
       inkscape:connector-curvature="0" />
    <path
       style="fill:#00ff00;fill-opacity:1;stroke:none"
       d="m 422.03292,222.91976 c 0.0163,-15.50087 0.0257,-15.85616 0.40213,-15.26309 0.21197,0.33397 1.10991,1.7768 1.99542,3.20629 l 1.61004,2.59907 0,12.66401 0,12.66402 -2.01215,0 -2.01216,0 0.0167,-15.8703 z"
       id="path6053"
       inkscape:connector-curvature="0" />
    <path
       style="fill:#00ff00;fill-opacity:1;stroke:none"
       d="m 430.43784,229.46107 c -0.0304,-5.13094 -0.008,-9.32818 0.0506,-9.32719 0.0583,8.9e-4 0.98755,1.33006 2.06511,2.9535 l 1.9592,2.95169 0,6.37549 0,6.3755 -2.00978,0 -2.00978,0 -0.0553,-9.32899 z"
       id="path6055"
       inkscape:connector-curvature="0" />
    <path
       style="fill:#00ff00;fill-opacity:1;stroke:none"
       d="m 438.96064,234.59478 c 0,-2.30741 0.0344,-4.19528 0.0764,-4.19528 0.042,0 0.94746,0.78819 2.01215,1.75153 l 1.93581,1.75154 0,2.44374 0,2.44375 -2.01216,0 -2.01215,0 0,-4.19528 z"
       id="path6057"
       inkscape:connector-curvature="0" />
    <path
       style="fill:#00ff00;fill-opacity:1;stroke:none"
       d="m 446.6404,230.11481 3.9e-4,-0.48791 0.5238,0.45279 c 0.28809,0.24903 0.52381,0.46859 0.52381,0.48791 0,0.0193 -0.23589,0.0351 -0.52419,0.0351 l -0.52419,0 3.8e-4,-0.48792 z"
       id="path6059"
       inkscape:connector-curvature="0" />
    <g
       id="g3287">
      <path
         sodipodi:nodetypes="cccccccccc"
         inkscape:connector-curvature="0"
         id="path4348-4"
         d="m 767.20004,238.18838 0.1168,28.48778 -204.84009,0.68195 -15.58643,-0.42332 -26.48771,-2.92734 -26.48771,-5.12281 -17.27968,-5.95668 -13.50334,-4.65489 -15.03356,-9.51382 z"
         style="fill:url(#pattern3275);fill-opacity:1;stroke:none" />
      <path
         style="fill:#ff0000;fill-opacity:1;stroke:none"
         d=""
         id="path3306"
         inkscape:connector-curvature="0"
         transform="matrix(0.42361094,0,0,0.22080413,367.17842,170.73168)" />
      <path
         style="fill:#ff0000;fill-opacity:1;stroke:none"
         d="m 213.20838,336.04505 c -3.62473,-4.62878 -4.19153,-6.60737 -4.45636,-15.55635 l -0.30341,-10.25304 5.04463,0 5.04463,0 0,15.55634 c 0,8.556 -0.26472,15.55635 -0.58827,15.55635 -0.32355,0 -2.4571,-2.38648 -4.74122,-5.3033 z"
         id="path3308"
         inkscape:connector-curvature="0"
         transform="matrix(0.42361094,0,0,0.22080413,367.17842,170.73168)" />
      <path
         style="fill:#ff0000;fill-opacity:1;stroke:none"
         d="m 231.90574,354.86828 -4.17548,-3.26357 0.70711,-21.03808 0.7071,-21.03808 4.5962,-0.44316 4.59619,-0.44315 0,24.04777 c 0,13.22627 -0.50752,24.36143 -1.12782,24.7448 -0.62031,0.38337 -3.00679,-0.77157 -5.3033,-2.56653 l 0,0 z"
         id="path3310"
         inkscape:connector-curvature="0"
         transform="matrix(0.42361094,0,0,0.22080413,367.17842,170.73168)" />
      <path
         style="fill:#ff0000;fill-opacity:1;stroke:none"
         d="m 252.85109,367.77696 -4.57766,-3.09408 -0.0185,-27.93072 -0.0185,-27.93072 4.94974,0 4.94975,0 0,31.1127 c 0,17.11198 -0.1591,31.07314 -0.35355,31.0248 -0.19446,-0.0483 -2.4135,-1.48023 -4.93121,-3.18198 z"
         id="path3312"
         inkscape:connector-curvature="0"
         transform="matrix(0.42361094,0,0,0.22080413,367.17842,170.73168)" />
      <path
         style="fill:#ff0000;fill-opacity:1;stroke:none"
         d="m 274.06429,381.9191 -4.57766,-3.09409 -0.0185,-35.00178 -0.0185,-35.00179 4.94975,0 4.94975,0 0,38.18377 c 0,21.00107 -0.1591,38.14421 -0.35356,38.09587 -0.19445,-0.0483 -2.4135,-1.48024 -4.93121,-3.18198 z"
         id="path3314"
         inkscape:connector-curvature="0"
         transform="matrix(0.42361094,0,0,0.22080413,367.17842,170.73168)" />
      <path
         style="fill:#ff0000;fill-opacity:1;stroke:none"
         d="m 288.45977,349.83363 c 0,-22.94561 0.19449,-32.33245 0.4322,-20.85965 0.23771,11.47281 0.23771,30.2465 0,41.71931 -0.23771,11.4728 -0.4322,2.08596 -0.4322,-20.85966 z"
         id="path3318"
         inkscape:connector-curvature="0"
         transform="matrix(0.42361094,0,0,0.22080413,367.17842,170.73168)" />
      <path
         style="fill:#ff0000;fill-opacity:1;stroke:none"
         d="m 293.9234,396.79696 -4.51753,-2.4156 -0.11689,-42.77996 -0.1169,-42.77996 4.9496,0 4.94961,0 0.39193,45.25555 c 0.21556,24.89055 0.0737,45.22855 -0.31517,45.19556 -0.38891,-0.033 -2.74,-1.14701 -5.22465,-2.47559 z"
         id="path3320"
         inkscape:connector-curvature="0"
         transform="matrix(0.42361094,0,0,0.22080413,367.17842,170.73168)" />
      <path
         style="fill:#ff0000;fill-opacity:1;stroke:none"
         d="m 314.7044,405.02235 c 0,-0.88854 -0.57897,-1.2577 -1.2866,-0.82037 -0.70762,0.43734 -2.13951,0.4682 -3.18198,0.0686 -1.54306,-0.59151 -1.82281,-9.53034 -1.50495,-48.08785 l 0.39044,-47.36128 4.93143,0 4.93143,0 -0.37212,48.31938 c -0.28595,37.13015 -0.78148,48.45573 -2.13989,48.90822 -0.97227,0.32386 -1.76776,-0.13815 -1.76776,-1.02669 z"
         id="path3322"
         inkscape:connector-curvature="0"
         transform="matrix(0.42361094,0,0,0.22080413,367.17842,170.73168)" />
      <path
         style="fill:#ff0000;fill-opacity:1;stroke:none"
         d="m 337.33181,413.51763 c 0,-0.75341 -0.83704,-1.04863 -1.86009,-0.65604 -1.02305,0.39258 -3.40954,0.0948 -5.3033,-0.66185 -1.89377,-0.7566 -2.64771,-1.41598 -1.67544,-1.46528 1.37981,-0.07 1.76776,-11.2626 1.76776,-51.00133 l 0,-50.91169 4.94975,0 4.94975,0 0,53.03301 c 0,34.41253 -0.49655,53.03301 -1.41421,53.03301 -0.77782,0 -1.41422,-0.61642 -1.41422,-1.36983 z"
         id="path3324"
         inkscape:connector-curvature="0"
         transform="matrix(0.42361094,0,0,0.22080413,367.17842,170.73168)" />
      <path
         style="fill:#ff0000;fill-opacity:1;stroke:none"
         d="m 354.65593,420.19536 -4.5962,-1.47442 0,-54.94975 0,-54.94975 4.94975,0 4.94975,0 0,55.75774 c 0,51.91342 0.17063,55.80233 2.47487,56.40449 2.03254,0.53116 1.96935,0.65027 -0.35355,0.66643 -1.55564,0.0109 -4.89672,-0.64381 -7.42462,-1.45474 z"
         id="path3326"
         inkscape:connector-curvature="0"
         transform="matrix(0.42361094,0,0,0.22080413,367.17842,170.73168)" />
      <path
         style="fill:#ff0000;fill-opacity:1;stroke:none"
         d="m 371.27294,424.07985 c -3.89465,-1.12828 -5.12931,-1.89751 -3.18198,-1.98248 l 3.18198,-0.13884 0,-56.56855 0,-56.56854 4.91922,0 4.91922,0 0.38408,58.69033 c 0.33668,51.44746 0.12229,58.67313 -1.73724,58.55102 -1.16673,-0.0766 -4.9851,-0.96894 -8.48528,-1.98294 z"
         id="path3328"
         inkscape:connector-curvature="0"
         transform="matrix(0.42361094,0,0,0.22080413,367.17842,170.73168)" />
      <path
         style="fill:#ff0000;fill-opacity:1;stroke:none"
         d="m 394.60746,429.44759 -4.24264,-0.54357 0.38344,-60.04129 0.38343,-60.04129 4.91987,0 4.91986,0 0,60.00572 0,60.00571 3.18198,0.61288 c 4.07178,0.78426 -3.42773,0.7857 -9.54594,0.002 l 0,0 z"
         id="path3330"
         inkscape:connector-curvature="0"
         transform="matrix(0.42361094,0,0,0.22080413,367.17842,170.73168)" />
      <path
         style="fill:#ff0000;fill-opacity:1;stroke:none"
         d="m 413.69934,432.81177 c -3.50017,-0.73691 -5.56846,-1.62419 -4.59619,-1.97175 1.37694,-0.49221 1.76777,-14.05041 1.76777,-61.32525 l 0,-60.69333 4.94974,0 4.94975,0 0,61.4146 c 0,57.3513 0.16374,61.44863 2.47488,61.92903 2.15759,0.44849 2.11226,0.6088 -0.35356,1.25049 -1.55563,0.40482 -5.69221,0.13312 -9.19239,-0.60379 z"
         id="path3332"
         inkscape:connector-curvature="0"
         transform="matrix(0.42361094,0,0,0.22080413,367.17842,170.73168)" />
      <path
         style="fill:#ff0000;fill-opacity:1;stroke:none"
         d="m 441.59039,436.08314 c -8.38337,-0.55255 -15.64889,-1.41105 -16.14561,-1.90777 -0.49672,-0.49673 0.79392,-0.90313 2.8681,-0.90313 l 3.77124,0 0,-62.2254 0,-62.2254 4.94975,0 4.94975,0 0,62.93251 0,62.9325 4.94974,0 4.94975,0 0,-62.9325 0,-62.93251 4.94975,0 4.94975,0 0,63.63961 0,63.63961 4.94974,0 4.94975,0 0,-63.63961 0,-63.63961 4.94975,0 4.94975,0 0,64.34672 0,64.34672 -12.37437,-0.21355 c -6.80591,-0.11745 -19.23348,-0.66564 -27.61684,-1.21819 z"
         id="path3334"
         inkscape:connector-curvature="0"
         transform="matrix(0.42361094,0,0,0.22080413,367.17842,170.73168)" />
      <path
         style="fill:#ff0000;fill-opacity:1;stroke:none"
         d="m 492.8953,372.46105 0,-63.63961 4.94975,0 4.94975,0 0,63.63961 0,63.63961 -4.94975,0 -4.94975,0 0,-63.63961 z"
         id="path3336"
         inkscape:connector-curvature="0"
         transform="matrix(0.42361094,0,0,0.22080413,367.17842,170.73168)" />
      <path
         style="fill:#ff0000;fill-opacity:1;stroke:none"
         d="m 512.69429,372.46105 0,-63.63961 4.94975,0 4.94975,0 0,63.63961 0,63.63961 -4.94975,0 -4.94975,0 0,-63.63961 z"
         id="path3338"
         inkscape:connector-curvature="0"
         transform="matrix(0.42361094,0,0,0.22080413,367.17842,170.73168)" />
      <path
         style="fill:#ff0000;fill-opacity:1;stroke:none"
         d="m 532.49328,372.46105 0,-63.63961 4.94975,0 4.94975,0 0,63.63961 0,63.63961 -4.94975,0 -4.94975,0 0,-63.63961 z"
         id="path3340"
         inkscape:connector-curvature="0"
         transform="matrix(0.42361094,0,0,0.22080413,367.17842,170.73168)" />
      <path
         style="fill:#ff0000;fill-opacity:1;stroke:none"
         d="m 553.70649,372.46105 0,-63.63961 4.94974,0 4.94975,0 0,63.63961 0,63.63961 -4.94975,0 -4.94974,0 0,-63.63961 z"
         id="path3342"
         inkscape:connector-curvature="0"
         transform="matrix(0.42361094,0,0,0.22080413,367.17842,170.73168)" />
      <path
         style="fill:#ff0000;fill-opacity:1;stroke:none"
         d="m 573.50548,372.46105 0,-63.63961 4.94974,0 4.94975,0 0,63.63961 0,63.63961 -4.94975,0 -4.94974,0 0,-63.63961 z"
         id="path3344"
         inkscape:connector-curvature="0"
         transform="matrix(0.42361094,0,0,0.22080413,367.17842,170.73168)" />
      <path
         style="fill:#ff0000;fill-opacity:1;stroke:none"
         d="m 594.71868,372.46105 0,-63.63961 4.94975,0 4.94975,0 0,63.63961 0,63.63961 -4.94975,0 -4.94975,0 0,-63.63961 z"
         id="path3346"
         inkscape:connector-curvature="0"
         transform="matrix(0.42361094,0,0,0.22080413,367.17842,170.73168)" />
      <path
         style="fill:#ff0000;fill-opacity:1;stroke:none"
         d="m 614.51767,372.46105 0,-63.63961 4.94975,0 4.94975,0 0,63.63961 0,63.63961 -4.94975,0 -4.94975,0 0,-63.63961 z"
         id="path3348"
         inkscape:connector-curvature="0"
         transform="matrix(0.42361094,0,0,0.22080413,367.17842,170.73168)" />
      <path
         style="fill:#ff0000;fill-opacity:1;stroke:none"
         d="m 634.31666,372.46105 0,-63.63961 4.94975,0 4.94975,0 0,63.63961 0,63.63961 -4.94975,0 -4.94975,0 0,-63.63961 z"
         id="path3350"
         inkscape:connector-curvature="0"
         transform="matrix(0.42361094,0,0,0.22080413,367.17842,170.73168)" />
      <path
         style="fill:#ff0000;fill-opacity:1;stroke:none"
         d="m 655.52986,372.46105 0,-63.63961 4.94975,0 4.94975,0 0,63.63961 0,63.63961 -4.94975,0 -4.94975,0 0,-63.63961 z"
         id="path3352"
         inkscape:connector-curvature="0"
         transform="matrix(0.42361094,0,0,0.22080413,367.17842,170.73168)" />
      <path
         style="fill:#ff0000;fill-opacity:1;stroke:none"
         d="m 685.87964,372.46105 c 0,-35.39069 0.18361,-49.8687 0.40801,-32.17336 0.22441,17.69535 0.22441,46.65137 0,64.34672 -0.2244,17.69535 -0.40801,3.21734 -0.40801,-32.17336 z"
         id="path3354"
         inkscape:connector-curvature="0"
         transform="matrix(0.42361094,0,0,0.22080413,367.17842,170.73168)" />
      <path
         style="fill:#ff0000;fill-opacity:1;stroke:none"
         d="m 675.32885,372.46105 0,-63.63961 4.94975,0 4.94975,0 0,63.63961 0,63.63961 -4.94975,0 -4.94975,0 0,-63.63961 z"
         id="path3356"
         inkscape:connector-curvature="0"
         transform="matrix(0.42361094,0,0,0.22080413,367.17842,170.73168)" />
      <path
         style="fill:#ff0000;fill-opacity:1;stroke:none"
         d="m 691.23876,436.50194 3.88908,-0.58915 0,-63.54567 0,-63.54568 4.94975,0 4.94975,0 0,62.93251 0,62.9325 -3.88909,0.34183 c -2.139,0.18801 51.47738,0.67058 119.14749,1.07238 l 123.03658,0.73055 -127.98632,0.12994 c -70.39248,0.0715 -126.23624,-0.13518 -124.09724,-0.45921 z"
         id="path3358"
         inkscape:connector-curvature="0"
         transform="matrix(0.42361094,0,0,0.22080413,367.17842,170.73168)" />
      <path
         style="fill:#ff0000;fill-opacity:1;stroke:none"
         d="m 716.34105,371.75395 0,-62.93251 4.94974,0 4.94975,0 0,62.93251 0,62.9325 -4.94975,0 -4.94974,0 0,-62.9325 z"
         id="path3360"
         inkscape:connector-curvature="0"
         transform="matrix(0.42361094,0,0,0.22080413,367.17842,170.73168)" />
      <path
         style="fill:#ff0000;fill-opacity:1;stroke:none"
         d="m 736.14004,371.75395 0,-62.93251 4.94974,0 4.94975,0 0,62.93251 0,62.9325 -4.94975,0 -4.94974,0 0,-62.9325 z"
         id="path3362"
         inkscape:connector-curvature="0"
         transform="matrix(0.42361094,0,0,0.22080413,367.17842,170.73168)" />
      <path
         style="fill:#ff0000;fill-opacity:1;stroke:none"
         d="m 757.35324,371.75395 0,-62.93251 4.94975,0 4.94975,0 0,62.93251 0,62.9325 -4.94975,0 -4.94975,0 0,-62.9325 z"
         id="path3364"
         inkscape:connector-curvature="0"
         transform="matrix(0.42361094,0,0,0.22080413,367.17842,170.73168)" />
      <path
         style="fill:#ff0000;fill-opacity:1;stroke:none"
         d="m 777.15223,371.75395 0,-62.93251 4.94975,0 4.94975,0 0,62.93251 0,62.9325 -4.94975,0 -4.94975,0 0,-62.9325 z"
         id="path3366"
         inkscape:connector-curvature="0"
         transform="matrix(0.42361094,0,0,0.22080413,367.17842,170.73168)" />
      <path
         style="fill:#ff0000;fill-opacity:1;stroke:none"
         d="m 796.95122,371.75395 0,-62.93251 4.94975,0 4.94975,0 0,62.93251 0,62.9325 -4.94975,0 -4.94975,0 0,-62.9325 z"
         id="path3368"
         inkscape:connector-curvature="0"
         transform="matrix(0.42361094,0,0,0.22080413,367.17842,170.73168)" />
      <path
         style="fill:#ff0000;fill-opacity:1;stroke:none"
         d="m 818.16442,371.75395 0,-62.93251 4.94975,0 4.94975,0 0,62.93251 0,62.9325 -4.94975,0 -4.94975,0 0,-62.9325 z"
         id="path3370"
         inkscape:connector-curvature="0"
         transform="matrix(0.42361094,0,0,0.22080413,367.17842,170.73168)" />
      <path
         style="fill:#ff0000;fill-opacity:1;stroke:none"
         d="m 837.96341,371.75395 0,-62.93251 4.94975,0 4.94975,0 0,62.93251 0,62.9325 -4.94975,0 -4.94975,0 0,-62.9325 z"
         id="path3372"
         inkscape:connector-curvature="0"
         transform="matrix(0.42361094,0,0,0.22080413,367.17842,170.73168)" />
      <path
         style="fill:#ff0000;fill-opacity:1;stroke:none"
         d="m 857.7624,371.04684 0,-63.63961 4.94975,0 4.94975,0 0,63.63961 0,63.63961 -4.94975,0 -4.94975,0 0,-63.63961 z"
         id="path3374"
         inkscape:connector-curvature="0"
         transform="matrix(0.42361094,0,0,0.22080413,367.17842,170.73168)" />
      <path
         style="fill:#ff0000;fill-opacity:1;stroke:none"
         d="m 878.97561,371.04684 0,-63.63961 4.94974,0 4.94975,0 0,63.63961 0,63.63961 -4.94975,0 -4.94974,0 0,-63.63961 z"
         id="path3376"
         inkscape:connector-curvature="0"
         transform="matrix(0.42361094,0,0,0.22080413,367.17842,170.73168)" />
      <path
         style="fill:#ff0000;fill-opacity:1;stroke:none"
         d="m 898.7746,371.04684 0,-63.63961 4.94974,0 4.94975,0 0,63.63961 0,63.63961 -4.94975,0 -4.94974,0 0,-63.63961 z"
         id="path3378"
         inkscape:connector-curvature="0"
         transform="matrix(0.42361094,0,0,0.22080413,367.17842,170.73168)" />
      <path
         style="fill:#ff0000;fill-opacity:1;stroke:none"
         d="m 918.57359,370.33973 0,-62.9325 4.94974,0 4.94975,0 0,62.9325 0,62.93251 -4.94975,0 -4.94974,0 0,-62.93251 z"
         id="path3380"
         inkscape:connector-curvature="0"
         transform="matrix(0.42361094,0,0,0.22080413,367.17842,170.73168)" />
      <path
         style="fill:#ff0000;fill-opacity:1;stroke:none"
         d="m 939.78679,370.33973 c 0,-54.99719 0.26748,-62.9325 2.12132,-62.9325 1.85384,0 2.12132,7.93531 2.12132,62.9325 0,54.9972 -0.26748,62.93251 -2.12132,62.93251 -1.85384,0 -2.12132,-7.93531 -2.12132,-62.93251 z"
         id="path3382"
         inkscape:connector-curvature="0"
         transform="matrix(0.42361094,0,0,0.22080413,367.17842,170.73168)" />
    </g>
    <path
       inkscape:connector-curvature="0"
       id="path3223"
       d="m 379.75987,238.72717 387.56058,-0.45721"
       style="fill:none;stroke:#ff0000;stroke-width:0.82357574;stroke-linecap:butt;stroke-linejoin:miter;stroke-miterlimit:4;stroke-opacity:1;stroke-dasharray:none"
       sodipodi:nodetypes="cc" />
  </g>
</svg>
