<?xml version="1.0" encoding="UTF-8" standalone="no"?>
<!DOCTYPE svg PUBLIC "-//W3C//DTD SVG 1.0//EN" "http://www.w3.org/TR/2001/PR-SVG-20010719/DTD/svg10.dtd">
<svg width="20cm" height="11cm" viewBox="248 43 389 214" xmlns="http://www.w3.org/2000/svg" xmlns:xlink="http://www.w3.org/1999/xlink">
  <line style="fill: none; fill-opacity:0; stroke-width: 2; stroke-dasharray: 4; stroke: #ff0000" x1="320" y1="100" x2="320" y2="60"/>
  <g>
    <line style="fill: none; fill-opacity:0; stroke-width: 2; stroke: #ff0000" x1="324.472" y1="64" x2="391.528" y2="64"/>
    <polyline style="fill: none; fill-opacity:0; stroke-width: 2; stroke: #ff0000" points="332.236,59 322.236,64 332.236,69 "/>
    <polyline style="fill: none; fill-opacity:0; stroke-width: 2; stroke: #ff0000" points="383.764,69 393.764,64 383.764,59 "/>
  </g>
  <text style="fill: #000000;text-anchor:middle;font-size:12.8;font-family:sanserif;font-style:normal;font-weight:normal" x="360" y="56.255">
    <tspan x="360" y="56.255">avg</tspan>
  </text>
  <g>
    <rect style="fill: #000000" x="320" y="100" width="76" height="76"/>
    <rect style="fill: none; fill-opacity:0; stroke-width: 2; stroke: #7f7f7f" x="320" y="100" width="76" height="76"/>
  </g>
  <line style="fill: none; fill-opacity:0; stroke-width: 2; stroke-dasharray: 4; stroke: #ff0000" x1="272" y1="100" x2="320" y2="100"/>
  <g>
    <line style="fill: none; fill-opacity:0; stroke-width: 2; stroke: #ff0000" x1="276" y1="104.472" x2="276" y2="171.528"/>
    <polyline style="fill: none; fill-opacity:0; stroke-width: 2; stroke: #ff0000" points="281,112.236 276,102.236 271,112.236 "/>
    <polyline style="fill: none; fill-opacity:0; stroke-width: 2; stroke: #ff0000" points="271,163.764 276,173.764 281,163.764 "/>
  </g>
  <text style="fill: #000000;text-anchor:middle;font-size:12.8;font-family:sanserif;font-style:normal;font-weight:normal" x="260" y="140.255">
    <tspan x="260" y="140.255">avg</tspan>
  </text>
  <line style="fill: none; fill-opacity:0; stroke-width: 2; stroke-dasharray: 4; stroke: #ff0000" x1="396" y1="100" x2="396" y2="62"/>
  <line style="fill: none; fill-opacity:0; stroke-width: 2; stroke-dasharray: 4; stroke: #ff0000" x1="272" y1="176" x2="320" y2="176"/>
  <g>
    <rect style="fill: #000000" x="400" y="100" width="76" height="76"/>
    <rect style="fill: none; fill-opacity:0; stroke-width: 2; stroke: #7f7f7f" x="400" y="100" width="76" height="76"/>
  </g>
  <g>
    <rect style="fill: #000000" x="480" y="100" width="76" height="76"/>
    <rect style="fill: none; fill-opacity:0; stroke-width: 2; stroke: #7f7f7f" x="480" y="100" width="76" height="76"/>
  </g>
  <g>
    <rect style="fill: #000000" x="560" y="100" width="76" height="76"/>
    <rect style="fill: none; fill-opacity:0; stroke-width: 2; stroke: #7f7f7f" x="560" y="100" width="76" height="76"/>
  </g>
  <g>
    <rect style="fill: #000000" x="320" y="180" width="76" height="76"/>
    <rect style="fill: none; fill-opacity:0; stroke-width: 2; stroke: #7f7f7f" x="320" y="180" width="76" height="76"/>
  </g>
  <g>
    <rect style="fill: #000000" x="400" y="180" width="76" height="76"/>
    <rect style="fill: none; fill-opacity:0; stroke-width: 2; stroke: #7f7f7f" x="400" y="180" width="76" height="76"/>
  </g>
  <g>
    <rect style="fill: #000000" x="480" y="180" width="76" height="76"/>
    <rect style="fill: none; fill-opacity:0; stroke-width: 2; stroke: #7f7f7f" x="480" y="180" width="76" height="76"/>
  </g>
  <g>
    <rect style="fill: #000000" x="560" y="180" width="76" height="76"/>
    <rect style="fill: none; fill-opacity:0; stroke-width: 2; stroke: #7f7f7f" x="560" y="180" width="76" height="76"/>
  </g>
</svg>
