<?xml version="1.0" encoding="UTF-8" standalone="no"?>
<!DOCTYPE svg PUBLIC "-//W3C//DTD SVG 1.0//EN" "http://www.w3.org/TR/2001/PR-SVG-20010719/DTD/svg10.dtd">
<svg width="13cm" height="10cm" viewBox="379 119 243 199" xmlns="http://www.w3.org/2000/svg" xmlns:xlink="http://www.w3.org/1999/xlink">
  <g>
    <rect style="fill: #000000" x="400" y="140" width="20" height="20"/>
    <rect style="fill: none; fill-opacity:0; stroke-width: 2; stroke: #7f7f7f" x="400" y="140" width="20" height="20"/>
  </g>
  <g>
    <rect style="fill: #000000" x="440" y="132" width="36" height="36"/>
    <rect style="fill: none; fill-opacity:0; stroke-width: 2; stroke: #7f7f7f" x="440" y="132" width="36" height="36"/>
  </g>
  <g>
    <rect style="fill: #000000" x="492" y="124" width="52" height="52"/>
    <rect style="fill: none; fill-opacity:0; stroke-width: 2; stroke: #7f7f7f" x="492" y="124" width="52" height="52"/>
  </g>
  <g>
    <rect style="fill: #000000" x="560" y="132" width="36" height="36"/>
    <rect style="fill: none; fill-opacity:0; stroke-width: 2; stroke: #7f7f7f" x="560" y="132" width="36" height="36"/>
  </g>
  <g>
    <rect style="fill: #000000" x="384" y="200" width="36" height="36"/>
    <rect style="fill: none; fill-opacity:0; stroke-width: 2; stroke: #7f7f7f" x="384" y="200" width="36" height="36"/>
  </g>
  <g>
    <rect style="fill: #000000" x="424" y="192" width="52" height="52"/>
    <rect style="fill: none; fill-opacity:0; stroke-width: 2; stroke: #7f7f7f" x="424" y="192" width="52" height="52"/>
  </g>
  <g>
    <rect style="fill: #000000" x="480" y="180" width="76" height="76"/>
    <rect style="fill: none; fill-opacity:0; stroke-width: 2; stroke: #7f7f7f" x="480" y="180" width="76" height="76"/>
  </g>
  <g>
    <rect style="fill: #000000" x="560" y="192" width="52" height="52"/>
    <rect style="fill: none; fill-opacity:0; stroke-width: 2; stroke: #7f7f7f" x="560" y="192" width="52" height="52"/>
  </g>
  <g>
    <rect style="fill: #000000" x="400" y="276" width="20" height="20"/>
    <rect style="fill: none; fill-opacity:0; stroke-width: 2; stroke: #7f7f7f" x="400" y="276" width="20" height="20"/>
  </g>
  <g>
    <rect style="fill: #000000" x="440" y="268" width="36" height="36"/>
    <rect style="fill: none; fill-opacity:0; stroke-width: 2; stroke: #7f7f7f" x="440" y="268" width="36" height="36"/>
  </g>
  <g>
    <rect style="fill: #000000" x="492" y="260" width="52" height="52"/>
    <rect style="fill: none; fill-opacity:0; stroke-width: 2; stroke: #7f7f7f" x="492" y="260" width="52" height="52"/>
  </g>
  <g>
    <rect style="fill: #000000" x="560" y="268" width="36" height="36"/>
    <rect style="fill: none; fill-opacity:0; stroke-width: 2; stroke: #7f7f7f" x="560" y="268" width="36" height="36"/>
  </g>
  <g>
    <line style="fill: none; fill-opacity:0; stroke-width: 6; stroke: #ff0000" x1="532" y1="252" x2="525.571" y2="235.927"/>
    <polygon style="fill: #ff0000" points="530.213,234.07 521.114,224.785 520.928,237.784 "/>
    <polygon style="fill: none; fill-opacity:0; stroke-width: 6; stroke: #ff0000" points="530.213,234.07 521.114,224.785 520.928,237.784 "/>
  </g>
  <line style="fill: none; fill-opacity:0; stroke-width: 2; stroke-dasharray: 4; stroke: #c2c2c2" x1="480" y1="316" x2="480" y2="120"/>
  <line style="fill: none; fill-opacity:0; stroke-width: 2; stroke-dasharray: 4; stroke: #c2c2c2" x1="424" y1="316" x2="424" y2="120"/>
  <line style="fill: none; fill-opacity:0; stroke-width: 2; stroke-dasharray: 4; stroke: #c2c2c2" x1="420" y1="316" x2="420" y2="120"/>
  <line style="fill: none; fill-opacity:0; stroke-width: 2; stroke-dasharray: 4; stroke: #c2c2c2" x1="476" y1="316" x2="476" y2="120"/>
  <line style="fill: none; fill-opacity:0; stroke-width: 2; stroke-dasharray: 4; stroke: #c2c2c2" x1="560" y1="316" x2="560" y2="120"/>
  <line style="fill: none; fill-opacity:0; stroke-width: 2; stroke-dasharray: 4; stroke: #c2c2c2" x1="556" y1="316" x2="556" y2="120"/>
  <line style="fill: none; fill-opacity:0; stroke-width: 2; stroke-dasharray: 4; stroke: #c2c2c2" x1="620" y1="180" x2="380" y2="180"/>
  <line style="fill: none; fill-opacity:0; stroke-width: 2; stroke-dasharray: 4; stroke: #c2c2c2" x1="620" y1="176" x2="380" y2="176"/>
  <line style="fill: none; fill-opacity:0; stroke-width: 2; stroke-dasharray: 4; stroke: #c2c2c2" x1="620" y1="260" x2="380" y2="260"/>
  <line style="fill: none; fill-opacity:0; stroke-width: 2; stroke-dasharray: 4; stroke: #c2c2c2" x1="620" y1="256" x2="380" y2="256"/>
</svg>
